<svg viewBox="10 10 161 161" fill="none" xmlns="http://www.w3.org/2000/svg">
<path d="M137.59 61.05C114.33 37.79 80.3998 28.75 48.6398 37.35C40.0398 69.1 49.0798 103.03 72.3398 126.3L72.5198 126.48C104.32 117.86 129.15 93.03 137.77 61.23L137.59 61.05Z" fill="#8D98FF"/>
<path d="M137.78 61.23L112.03 68.21C96.1999 72.5 79.2899 67.99 67.6899 56.4L48.6499 37.36C80.4099 28.75 114.34 37.8 137.6 61.06L137.78 61.24V61.23Z" fill="#7A8AFF"/>
<path d="M137.78 61.23C129.16 93.03 104.33 117.86 72.5298 126.48L79.5698 100.48C83.8198 84.78 96.0798 72.52 111.78 68.27L137.78 61.22V61.23Z" fill="#607FFF"/>
<path d="M79.4998 100.74L72.5198 126.49L72.3398 126.31C49.0798 103.05 40.0398 69.12 48.6398 37.36L67.6798 56.4C79.2798 68 83.7798 84.91 79.4898 100.74H79.4998Z" fill="#A6A8FF"/>
</svg>
